<svg width="75" height="20" viewBox="0 0 75 20" fill="none" xmlns="http://www.w3.org/2000/svg">
<path d="M30.2261 15.14C29.3581 15.14 28.6301 15.014 28.0421 14.762C27.4634 14.5007 27.0201 14.1647 26.7121 13.754C26.4134 13.334 26.2547 12.8953 26.2361 12.438C26.2361 12.354 26.2641 12.284 26.3201 12.228C26.3761 12.172 26.4461 12.144 26.5301 12.144H27.7761C27.8974 12.144 27.9861 12.172 28.0421 12.228C28.1074 12.2747 28.1634 12.3353 28.2101 12.41C28.2661 12.5873 28.3734 12.7647 28.5321 12.942C28.6907 13.11 28.9054 13.25 29.1761 13.362C29.4561 13.474 29.8061 13.53 30.2261 13.53C30.8981 13.53 31.3974 13.418 31.7241 13.194C32.0601 12.97 32.2281 12.6667 32.2281 12.284C32.2281 12.0133 32.1394 11.7987 31.9621 11.64C31.7847 11.472 31.5094 11.3227 31.1361 11.192C30.7721 11.052 30.2867 10.9073 29.6801 10.758C28.9801 10.59 28.3921 10.3893 27.9161 10.156C27.4494 9.91333 27.0947 9.61 26.8521 9.246C26.6187 8.882 26.5021 8.42 26.5021 7.86C26.5021 7.31867 26.6467 6.838 26.9361 6.418C27.2347 5.998 27.6547 5.66667 28.1961 5.424C28.7467 5.18133 29.4001 5.06 30.1561 5.06C30.7627 5.06 31.2994 5.144 31.7661 5.312C32.2327 5.47067 32.6201 5.68533 32.9281 5.956C33.2361 6.21733 33.4694 6.502 33.6281 6.81C33.7961 7.10867 33.8847 7.40267 33.8941 7.692C33.8941 7.76667 33.8661 7.83667 33.8101 7.902C33.7634 7.958 33.6934 7.986 33.6001 7.986H32.2981C32.2234 7.986 32.1487 7.96733 32.0741 7.93C31.9994 7.89267 31.9387 7.82267 31.8921 7.72C31.8361 7.43067 31.6541 7.18333 31.3461 6.978C31.0381 6.77267 30.6414 6.67 30.1561 6.67C29.6521 6.67 29.2461 6.76333 28.9381 6.95C28.6301 7.13667 28.4761 7.426 28.4761 7.818C28.4761 8.07933 28.5507 8.29867 28.7001 8.476C28.8587 8.644 29.1061 8.79333 29.4421 8.924C29.7874 9.05467 30.2401 9.19467 30.8001 9.344C31.5934 9.52133 32.2421 9.72667 32.7461 9.96C33.2501 10.1933 33.6187 10.492 33.8521 10.856C34.0854 11.2107 34.2021 11.6633 34.2021 12.214C34.2021 12.83 34.0341 13.3573 33.6981 13.796C33.3714 14.2253 32.9094 14.5567 32.3121 14.79C31.7147 15.0233 31.0194 15.14 30.2261 15.14ZM38.2591 15C38.1658 15 38.0865 14.9673 38.0211 14.902C37.9558 14.8367 37.9231 14.7573 37.9231 14.664V6.922H35.3331C35.2398 6.922 35.1605 6.88933 35.0951 6.824C35.0298 6.75867 34.9971 6.67933 34.9971 6.586V5.55C34.9971 5.44733 35.0298 5.36333 35.0951 5.298C35.1605 5.23267 35.2398 5.2 35.3331 5.2H42.4731C42.5758 5.2 42.6598 5.23267 42.7251 5.298C42.7905 5.36333 42.8231 5.44733 42.8231 5.55V6.586C42.8231 6.67933 42.7905 6.75867 42.7251 6.824C42.6598 6.88933 42.5758 6.922 42.4731 6.922H39.8971V14.664C39.8971 14.7573 39.8645 14.8367 39.7991 14.902C39.7338 14.9673 39.6498 15 39.5471 15H38.2591ZM42.6863 15C42.6116 15 42.5416 14.972 42.4763 14.916C42.4203 14.86 42.3923 14.79 42.3923 14.706C42.3923 14.6687 42.4016 14.6267 42.4203 14.58L45.7943 5.55C45.8223 5.45667 45.8736 5.37733 45.9483 5.312C46.0323 5.23733 46.1443 5.2 46.2843 5.2H47.8103C47.9503 5.2 48.0576 5.23733 48.1323 5.312C48.207 5.37733 48.263 5.45667 48.3003 5.55L51.6743 14.58C51.6836 14.6267 51.6883 14.6687 51.6883 14.706C51.6883 14.79 51.6603 14.86 51.6043 14.916C51.5483 14.972 51.483 15 51.4083 15H50.1903C50.0596 15 49.9616 14.972 49.8963 14.916C49.8403 14.8507 49.803 14.79 49.7843 14.734L49.1263 13.026H44.9683L44.3103 14.734C44.2916 14.79 44.2496 14.8507 44.1843 14.916C44.1283 14.972 44.035 15 43.9043 15H42.6863ZM45.4583 11.416H48.6363L47.0403 7.09L45.4583 11.416ZM56.6539 15.14C55.7859 15.14 55.0486 14.9907 54.4419 14.692C53.8446 14.384 53.3872 13.95 53.0699 13.39C52.7526 12.8207 52.5752 12.1393 52.5379 11.346C52.5286 10.9633 52.5239 10.5527 52.5239 10.114C52.5239 9.67533 52.5286 9.25533 52.5379 8.854C52.5752 8.07 52.7526 7.39333 53.0699 6.824C53.3966 6.25467 53.8586 5.82067 54.4559 5.522C55.0626 5.214 55.7952 5.06 56.6539 5.06C57.2886 5.06 57.8579 5.144 58.3619 5.312C58.8659 5.48 59.2952 5.71333 59.6499 6.012C60.0046 6.30133 60.2799 6.642 60.4759 7.034C60.6719 7.426 60.7746 7.85067 60.7839 8.308C60.7932 8.392 60.7652 8.462 60.6999 8.518C60.6439 8.574 60.5739 8.602 60.4899 8.602H59.1599C59.0572 8.602 58.9732 8.57867 58.9079 8.532C58.8426 8.476 58.7959 8.38733 58.7679 8.266C58.6186 7.65 58.3619 7.23 57.9979 7.006C57.6339 6.782 57.1812 6.67 56.6399 6.67C56.0146 6.67 55.5152 6.84733 55.1419 7.202C54.7686 7.54733 54.5679 8.12133 54.5399 8.924C54.5119 9.68933 54.5119 10.4733 54.5399 11.276C54.5679 12.0787 54.7686 12.6573 55.1419 13.012C55.5152 13.3573 56.0146 13.53 56.6399 13.53C57.1812 13.53 57.6339 13.418 57.9979 13.194C58.3619 12.9607 58.6186 12.5407 58.7679 11.934C58.7959 11.8033 58.8426 11.7147 58.9079 11.668C58.9732 11.6213 59.0572 11.598 59.1599 11.598H60.4899C60.5739 11.598 60.6439 11.626 60.6999 11.682C60.7652 11.738 60.7932 11.808 60.7839 11.892C60.7746 12.3493 60.6719 12.774 60.4759 13.166C60.2799 13.558 60.0046 13.9033 59.6499 14.202C59.2952 14.4913 58.8659 14.72 58.3619 14.888C57.8579 15.056 57.2886 15.14 56.6539 15.14ZM62.8502 15C62.7569 15 62.6776 14.9673 62.6122 14.902C62.5469 14.8367 62.5142 14.7573 62.5142 14.664V5.55C62.5142 5.44733 62.5469 5.36333 62.6122 5.298C62.6776 5.23267 62.7569 5.2 62.8502 5.2H64.0822C64.1849 5.2 64.2689 5.23267 64.3342 5.298C64.3996 5.36333 64.4322 5.44733 64.4322 5.55V8.826L67.5962 5.452C67.6336 5.40533 67.6942 5.354 67.7782 5.298C67.8716 5.23267 67.9929 5.2 68.1422 5.2H69.5282C69.6029 5.2 69.6682 5.228 69.7242 5.284C69.7896 5.34 69.8222 5.41 69.8222 5.494C69.8222 5.55933 69.8036 5.61533 69.7662 5.662L65.9162 9.89L70.0322 14.524C70.0789 14.58 70.1022 14.6407 70.1022 14.706C70.1022 14.79 70.0696 14.86 70.0042 14.916C69.9482 14.972 69.8829 15 69.8082 15H68.3662C68.2076 15 68.0816 14.9673 67.9882 14.902C67.9042 14.8273 67.8482 14.776 67.8202 14.748L64.4322 11.038V14.664C64.4322 14.7573 64.3996 14.8367 64.3342 14.902C64.2689 14.9673 64.1849 15 64.0822 15H62.8502Z" fill="white"/>
<path d="M1.24853 5.95352L9.19853 0.828487C9.53003 0.614787 9.96338 0.609949 10.3 0.816191L18.6656 5.94094C19.2844 6.31999 19.276 7.18413 18.65 7.55228L10.2841 12.4723C9.95493 12.6658 9.53813 12.6612 9.21378 12.4605L1.2642 7.54075C0.664164 7.16942 0.655929 6.33552 1.24853 5.95352Z" stroke="white" stroke-width="0.7"/>
<path d="M1.24853 9.17L9.19853 4.04498C9.53003 3.83128 9.96338 3.82644 10.3 4.03268L18.6656 9.15743C19.2844 9.53648 19.276 10.4006 18.65 10.7688L10.2841 15.6888C9.95493 15.8823 9.53813 15.8778 9.21378 15.677L1.2642 10.7572C0.664164 10.3859 0.655929 9.552 1.24853 9.17Z" stroke="white" stroke-width="0.7"/>
<path d="M1.24853 12.688L9.19853 7.56303C9.53003 7.34936 9.96338 7.3445 10.3 7.55074L18.6656 12.6755C19.2844 13.0545 19.276 13.9187 18.65 14.2868L10.2841 19.2068C9.95493 19.4004 9.53813 19.3958 9.21378 19.1951L1.2642 14.2753C0.664164 13.904 0.655929 13.0701 1.24853 12.688Z" stroke="white" stroke-width="0.7"/>
</svg>
