<svg width="400" height="400" viewBox="0 0 400 400" fill="none" xmlns="http://www.w3.org/2000/svg">
<g opacity="0.5">
<path d="M24.971 119.07L183.971 16.5699C190.601 12.2959 199.268 12.1991 206.001 16.324L373.313 118.819C385.688 126.4 385.521 143.683 373.001 151.046L205.682 249.446C199.099 253.317 190.763 253.225 184.276 249.21L25.2844 150.815C13.2836 143.389 13.1189 126.71 24.971 119.07Z" stroke="white"/>
<path d="M24.971 183.4L183.971 80.8996C190.601 76.6256 199.268 76.5288 206.001 80.6536L373.313 183.149C385.688 190.73 385.521 208.012 373.001 215.375L205.682 313.775C199.099 317.647 190.763 317.555 184.276 313.54L25.2844 215.145C13.2836 207.718 13.1189 191.04 24.971 183.4Z" stroke="white"/>
<path d="M24.971 253.76L183.971 151.26C190.601 146.987 199.268 146.89 206.001 151.014L373.313 253.51C385.688 261.09 385.521 278.373 373.001 285.736L205.682 384.136C199.099 388.007 190.763 387.915 184.276 383.901L25.2844 285.506C13.2836 278.079 13.1189 261.401 24.971 253.76Z" stroke="white"/>
</g>
</svg>
